<svg class="animated" id="freepik_stories-airport-tower" xmlns="http://www.w3.org/2000/svg" xmlns:xlink="http://www.w3.org/1999/xlink" viewBox="0 0 500 500" version="1.1" xmlns:svgjs="http://svgjs.com/svgjs"><style>svg#freepik_stories-airport-tower:not(.animated) .animable {opacity: 0;}svg#freepik_stories-airport-tower.animated #freepik--Airplane--inject-421 {animation: 1s 1 forwards ease-in slideUp,1.5s Infinite  linear floating;animation-delay: 0s,1s;}            @keyframes slideUp {                0% {                    opacity: 0;                    transform: translateY(30px);                }                100% {                    opacity: 1;                    transform: inherit;                }            }                    @keyframes floating {                0% {                    opacity: 1;                    transform: translateY(0px);                }                50% {                    transform: translateY(-10px);                }                100% {                    opacity: 1;                    transform: translateY(0px);                }            }        .animator-hidden { display: none; }</style><g id="freepik--background-complete--inject-421" class="animable animator-hidden" style="transform-origin: 250px 235.135px;"><path d="M243.79,101.93s6.17-1.49,9.75-4.9a5.59,5.59,0,0,0-1.13-8.86,41.09,41.09,0,0,0-22.09-5.08c-16.34.67-110.18,22.22-110.18,22.22l-42.2,10.27,2.42,5.85s67.46-2,87.16-3.69S243.79,101.93,243.79,101.93Z" style="fill: rgb(235, 235, 235); transform-origin: 166.585px 102.231px;" id="elbzlrcs15kgt" class="animable"></path><path d="M108.44,108.16l-28-18.06a16,16,0,0,0-11.86-2.22l-7.35,1.5L78.09,116Z" style="fill: rgb(224, 224, 224); transform-origin: 84.835px 101.778px;" id="elsi7kgd2nvpf" class="animable"></path><path d="M95,117.84l-14.68,3.59L62.62,120a15.87,15.87,0,0,1,9.57-2.57C73.17,117.46,93.81,117.87,95,117.84Z" style="fill: rgb(224, 224, 224); transform-origin: 78.81px 119.418px;" id="eluvz49cdmsyh" class="animable"></path><g id="elv7sd8du298"><path d="M250.92,87.37,237.2,90.22a.89.89,0,0,1-.82-.26l-1.06-1.1a.88.88,0,0,1,.46-1.48L246,85.3a35.45,35.45,0,0,1,4.92,2.07Z" style="fill: rgb(255, 255, 255); opacity: 0.6; transform-origin: 242.994px 87.7686px;" class="animable"></path></g><g id="eln88mvspxbl"><path d="M231.73,90.72a.4.4,0,0,1-.2.67L114.64,115.63a1.54,1.54,0,0,1-1.41-.43h0a1.54,1.54,0,0,1,.79-2.57L229.38,88.71a.58.58,0,0,1,.52.15Z" style="fill: rgb(255, 255, 255); opacity: 0.6; transform-origin: 172.323px 102.18px;" class="animable"></path></g><path d="M199.14,108.2S197.7,110,184,113.36s-28.51,3.77-37.42,4-29.68-.16-31.29-1.47,32.19-10,58.68-10C197.81,105.79,199.82,105.66,199.14,108.2Z" style="fill: rgb(224, 224, 224); transform-origin: 157.24px 111.635px;" id="ellg172tb0rg" class="animable"></path><path d="M166.31,110.73l2.17,10.47s-10.44,2.82-14.79.5c-3-1.59-2.82-5.81,1.8-7.92A35.1,35.1,0,0,1,166.31,110.73Z" style="fill: rgb(230, 230, 230); transform-origin: 160.082px 116.673px;" id="elfuh7cdoh7hw" class="animable"></path><path d="M187.78,106.53,190,117s-10.44,2.83-14.78.5c-3-1.58-2.83-5.81,1.8-7.92A35.08,35.08,0,0,1,187.78,106.53Z" style="fill: rgb(230, 230, 230); transform-origin: 181.605px 112.475px;" id="elcrijtqxo6g6" class="animable"></path><path d="M186.34,106.72l2.21,10.63-1.34.28L185,107C185.5,106.86,185.94,106.78,186.34,106.72Z" style="fill: rgb(255, 255, 255); transform-origin: 186.775px 112.175px;" id="el57pl6ztrtas" class="animable"></path><path d="M164.71,110.93l2.21,10.63-1.34.28-2.16-10.68C163.88,111.07,164.31,111,164.71,110.93Z" style="fill: rgb(255, 255, 255); transform-origin: 165.17px 116.385px;" id="elb8k26uvf3ac" class="animable"></path><path d="M75.35,103.08a5.37,5.37,0,1,0,4.16-6.34A5.36,5.36,0,0,0,75.35,103.08Z" style="fill: rgb(235, 235, 235); transform-origin: 80.6086px 101.996px;" id="elb4bi6ru5tz" class="animable"></path><path d="M467.38,386.66s5.19,0,8.68-2.07a4.58,4.58,0,0,0,.75-7.27,33.55,33.55,0,0,0-16.65-8.16c-13.13-2.52-91.87-2.87-91.87-2.87l-35.51.3.83,5.11s54.08,11,70.09,13.33S467.38,386.66,467.38,386.66Z" style="fill: rgb(235, 235, 235); transform-origin: 405.524px 376.524px;" id="elgn2s6ilgj0g" class="animable"></path><path d="M358.45,366.38,339.5,346.77a13,13,0,0,0-9-4l-6.13-.18,8.49,24.3Z" style="fill: rgb(224, 224, 224); transform-origin: 341.41px 354.74px;" id="elpf3pxyabtc" class="animable"></path><path d="M346,371.58l-12.36.12-13.85-4.44a13,13,0,0,1,8.1-.26C328.63,367.2,345,371.38,346,371.58Z" style="fill: rgb(224, 224, 224); transform-origin: 332.895px 369.088px;" id="els92avnq34ah" class="animable"></path><g id="elfypw3dvfwpt"><path d="M475.77,376.4l-11.46-.29a.73.73,0,0,1-.6-.35l-.64-1.08a.72.72,0,0,1,.64-1.09l8.53.25a29.55,29.55,0,0,1,3.53,2.56Z" style="fill: rgb(255, 255, 255); opacity: 0.6; transform-origin: 469.369px 374.995px;" class="animable"></path></g><g id="elrrk86nml9ai"><path d="M459.87,375.49a.33.33,0,0,1-.29.5L362,373.48a1.24,1.24,0,0,1-1-.61h0a1.25,1.25,0,0,1,1.11-1.89l96.31,2.47a.45.45,0,0,1,.38.22Z" style="fill: rgb(255, 255, 255); opacity: 0.6; transform-origin: 410.37px 373.485px;" class="animable"></path></g><path d="M430.66,383.33s-1.49,1.18-13,1.29-23.4-2.32-30.53-3.82-23.61-5.67-24.64-7,27.48-1.92,48.59,3C430,381.16,431.67,381.44,430.66,383.33Z" style="fill: rgb(224, 224, 224); transform-origin: 396.675px 378.744px;" id="elimuq1k6zo1" class="animable"></path><path d="M404,379.22l-.22,8.74s-8.84.3-11.87-2.36c-2.07-1.82-1.17-5.16,2.91-6A28.72,28.72,0,0,1,404,379.22Z" style="fill: rgb(230, 230, 230); transform-origin: 397.418px 383.493px;" id="elb905f4hqfdo" class="animable"></path><path d="M421.92,379.88l-.22,8.74s-8.84.31-11.87-2.35c-2.07-1.82-1.16-5.16,2.91-6A28.71,28.71,0,0,1,421.92,379.88Z" style="fill: rgb(230, 230, 230); transform-origin: 415.34px 384.155px;" id="el7q4b41l1nzk" class="animable"></path><path d="M420.74,379.76l-.23,8.88-1.11,0,.27-8.9C420.05,379.72,420.41,379.73,420.74,379.76Z" style="fill: rgb(255, 255, 255); transform-origin: 420.07px 384.185px;" id="elif0abd876v" class="animable"></path><path d="M402.74,379.08l-.23,8.87-1.12,0,.27-8.91C402,379,402.41,379.05,402.74,379.08Z" style="fill: rgb(255, 255, 255); transform-origin: 402.065px 383.488px;" id="el9m77fsbg9z9" class="animable"></path><path d="M333,356.16a4.39,4.39,0,1,0,4.51-4.28A4.4,4.4,0,0,0,333,356.16Z" style="fill: rgb(235, 235, 235); transform-origin: 337.389px 356.268px;" id="elkery411ntze" class="animable"></path><path d="M429.71,251.59a5.57,5.57,0,0,0-6-.35,10.71,10.71,0,0,0-14.09-4.52,12.15,12.15,0,0,0-23.71.29,4.63,4.63,0,0,1-.91,2.4c-1,1-2.63.67-4,.56a10,10,0,0,0-10.08,7l60.94-.22A4.84,4.84,0,0,0,429.71,251.59Z" style="fill: rgb(230, 230, 230); transform-origin: 401.449px 247.171px;" id="elml032wlcsrj" class="animable"></path><path d="M362.84,82.89a7,7,0,0,0-7.58-.44c-3.07-6.21-11.63-9-17.73-5.68a15.29,15.29,0,0,0-29.83.36,5.92,5.92,0,0,1-1.14,3c-1.24,1.27-3.32.84-5.08.71a12.59,12.59,0,0,0-12.69,8.84l76.67-.27C366.13,86.83,365,84.51,362.84,82.89Z" style="fill: rgb(230, 230, 230); transform-origin: 327.221px 77.3503px;" id="ellvefhyxad6m" class="animable"></path><path d="M150.14,183.61a5.74,5.74,0,0,0-6.2-.36,11,11,0,0,0-14.52-4.65,12.52,12.52,0,0,0-24.42.29,4.81,4.81,0,0,1-.94,2.48c-1,1-2.71.69-4.16.57a10.32,10.32,0,0,0-10.39,7.25l62.78-.23A5,5,0,0,0,150.14,183.61Z" style="fill: rgb(230, 230, 230); transform-origin: 120.967px 179.09px;" id="elsvmefrcc8" class="animable"></path><path d="M117.38,313.85a4.34,4.34,0,0,0-4.68-.28,8.31,8.31,0,0,0-10.94-3.5,9.44,9.44,0,0,0-18.41.22,3.62,3.62,0,0,1-.71,1.86c-.76.79-2,.52-3.14.44a7.75,7.75,0,0,0-7.82,5.46l47.32-.17A3.77,3.77,0,0,0,117.38,313.85Z" style="fill: rgb(245, 245, 245); transform-origin: 95.3904px 310.44px;" id="els63c92nyazd" class="animable"></path><path d="M444.58,314.05a4.3,4.3,0,0,0-4.67-.27,8.34,8.34,0,0,0-11-3.51,9.44,9.44,0,0,0-18.41.23,3.61,3.61,0,0,1-.7,1.86c-.77.78-2.05.52-3.14.44a7.76,7.76,0,0,0-7.83,5.46l47.32-.17A3.77,3.77,0,0,0,444.58,314.05Z" style="fill: rgb(245, 245, 245); transform-origin: 422.545px 310.647px;" id="eltx07njiuzd" class="animable"></path><path d="M349.21,286.31a4.34,4.34,0,0,0-4.68-.28,8.31,8.31,0,0,0-10.94-3.5,9.44,9.44,0,0,0-18.41.22,3.62,3.62,0,0,1-.71,1.86c-.76.79-2,.52-3.14.44a7.75,7.75,0,0,0-7.82,5.46l47.32-.17A3.77,3.77,0,0,0,349.21,286.31Z" style="fill: rgb(245, 245, 245); transform-origin: 327.22px 282.9px;" id="elltq6fbx4oza" class="animable"></path><path d="M227.54,147.21a4.77,4.77,0,0,0-5.14-.3,9.14,9.14,0,0,0-12-3.85,10.38,10.38,0,0,0-20.24.24,4,4,0,0,1-.78,2c-.84.86-2.25.58-3.45.48a8.55,8.55,0,0,0-8.61,6l52-.19A4.16,4.16,0,0,0,227.54,147.21Z" style="fill: rgb(245, 245, 245); transform-origin: 203.369px 143.443px;" id="el0lkw04rfkdpa" class="animable"></path><path d="M353.38,147.21a4.77,4.77,0,0,0-5.14-.3,9.14,9.14,0,0,0-12-3.85,10.38,10.38,0,0,0-20.24.24,4,4,0,0,1-.78,2c-.84.86-2.25.58-3.45.48a8.54,8.54,0,0,0-8.6,6l52-.19A4.14,4.14,0,0,0,353.38,147.21Z" style="fill: rgb(245, 245, 245); transform-origin: 329.22px 143.443px;" id="elm64kui7jywp" class="animable"></path><path d="M262.08,226.08a5.74,5.74,0,0,0-6.2-.36,11,11,0,0,0-14.52-4.65,12.52,12.52,0,0,0-24.42.3,4.8,4.8,0,0,1-.93,2.47c-1,1-2.72.69-4.17.58a10.3,10.3,0,0,0-10.38,7.24l62.77-.23A5,5,0,0,0,262.08,226.08Z" style="fill: rgb(230, 230, 230); transform-origin: 232.912px 221.562px;" id="ela3mmp72bfwr" class="animable"></path><path d="M459.93,147.05a4.57,4.57,0,0,0-4.93-.28,8.74,8.74,0,0,0-11.52-3.69,9.93,9.93,0,0,0-19.38.23,3.83,3.83,0,0,1-.74,2c-.81.83-2.16.55-3.31.46a8.18,8.18,0,0,0-8.24,5.75l49.82-.18A4,4,0,0,0,459.93,147.05Z" style="fill: rgb(245, 245, 245); transform-origin: 436.776px 143.476px;" id="elr0yv8i7mrpg" class="animable"></path><path d="M443.92,330.2H263.17a5.87,5.87,0,0,1-5.86-5.86V61.06a5.87,5.87,0,0,1,5.86-5.86H443.92a5.87,5.87,0,0,1,5.86,5.86V324.34A5.87,5.87,0,0,1,443.92,330.2ZM263.17,55.45a5.62,5.62,0,0,0-5.61,5.61V324.34a5.62,5.62,0,0,0,5.61,5.61H443.92a5.61,5.61,0,0,0,5.61-5.61V61.06a5.61,5.61,0,0,0-5.61-5.61Z" style="fill: rgb(224, 224, 224); transform-origin: 353.545px 192.7px;" id="eliz2l9leg95m" class="animable"></path><path d="M235.49,330.2H54.75a5.87,5.87,0,0,1-5.87-5.86V61.06a5.87,5.87,0,0,1,5.87-5.86H235.49a5.86,5.86,0,0,1,5.86,5.86V324.34A5.86,5.86,0,0,1,235.49,330.2ZM54.75,55.45a5.62,5.62,0,0,0-5.62,5.61V324.34A5.62,5.62,0,0,0,54.75,330H235.49a5.61,5.61,0,0,0,5.61-5.61V61.06a5.61,5.61,0,0,0-5.61-5.61Z" style="fill: rgb(224, 224, 224); transform-origin: 145.115px 192.7px;" id="elzkpj703ea6r" class="animable"></path><rect y="391.27" width="500" height="0.25" style="fill: rgb(224, 224, 224); transform-origin: 250px 391.395px;" id="elbypb09ngnob" class="animable"></rect><rect x="51.67" y="405.53" width="16.06" height="0.25" style="fill: rgb(224, 224, 224); transform-origin: 59.7px 405.655px;" id="eltskxpv2opz" class="animable"></rect><rect x="170.35" y="402.82" width="53.53" height="0.25" style="fill: rgb(224, 224, 224); transform-origin: 197.115px 402.945px;" id="elsix3jbja8dg" class="animable"></rect><rect x="68.73" y="414.82" width="36.25" height="0.25" style="fill: rgb(224, 224, 224); transform-origin: 86.855px 414.945px;" id="elhtcyrwwsd76" class="animable"></rect><rect x="378.35" y="402.69" width="43.19" height="0.25" style="fill: rgb(224, 224, 224); transform-origin: 399.945px 402.815px;" id="elglkimxak8dh" class="animable"></rect><rect x="430.45" y="402.69" width="6.33" height="0.25" style="fill: rgb(224, 224, 224); transform-origin: 433.615px 402.815px;" id="ellu31k2sgsw" class="animable"></rect><rect x="316.21" y="408.92" width="53.89" height="0.25" style="fill: rgb(224, 224, 224); transform-origin: 343.155px 409.045px;" id="el1cg16xtw2j4" class="animable"></rect></g><g id="freepik--Shadow--inject-421" class="animable" style="transform-origin: 250.775px 442.26px;"><path d="M459.65,442.26c0,3.39-93.52,6.13-208.88,6.13S41.9,445.65,41.9,442.26s93.51-6.13,208.87-6.13S459.65,438.87,459.65,442.26Z" style="fill: rgb(245, 245, 245); transform-origin: 250.775px 442.26px;" id="el7z7gyahlou9" class="animable"></path></g><g id="freepik--Airplane--inject-421" class="animable animator-active" style="transform-origin: 177.498px 274.319px;"><path d="M67.17,273.16s-8-1.92-12.58-6.31a7.21,7.21,0,0,1,1.46-11.42,52.8,52.8,0,0,1,28.49-6.55c21.06.86,142.05,28.65,142.05,28.65L281,290.76l-3.12,7.55s-87-2.55-112.37-4.76S67.17,273.16,67.17,273.16Z" style="fill: rgb(246, 139, 31); transform-origin: 166.708px 273.556px;" id="elxd20nfn78m" class="animable"></path><path d="M241.67,281.19l36.14-23.28a20.64,20.64,0,0,1,15.29-2.86l9.48,1.93-21.77,34.25Z" style="fill: rgb(38, 50, 56); transform-origin: 272.125px 272.931px;" id="elda6gwiv153" class="animable"></path><path d="M259.18,293.68l18.93,4.63L301,296.48s-4.57-3.53-12.33-3.32C287.36,293.19,260.75,293.72,259.18,293.68Z" style="fill: rgb(38, 50, 56); transform-origin: 280.09px 295.73px;" id="el9iomarird9p" class="animable"></path><g id="eln348m3c8tkc"><path d="M58,254.39l17.69,3.67a1.12,1.12,0,0,0,1-.33l1.37-1.42a1.13,1.13,0,0,0-.59-1.9l-13.18-2.69A46.24,46.24,0,0,0,58,254.38Z" style="fill: rgb(255, 255, 255); opacity: 0.6; transform-origin: 68.1915px 254.898px;" class="animable"></path></g><g id="elnt67m51eqpg"><path d="M82.72,258.71a.51.51,0,0,0,.26.86l150.7,31.26a2,2,0,0,0,1.82-.57h0a2,2,0,0,0-1-3.3L85.75,256.11a.75.75,0,0,0-.67.2Z" style="fill: rgb(255, 255, 255); opacity: 0.6; transform-origin: 159.301px 273.482px;" class="animable"></path></g><path d="M124.74,281.25s1.85,2.34,19.53,6.65S181,292.76,192.51,293s38.28-.2,40.34-1.89-41.5-12.84-75.65-12.92C126.46,278.14,123.86,278,124.74,281.25Z" style="fill: rgb(38, 50, 56); transform-origin: 178.762px 285.617px;" id="elcqe9ipaettl" class="animable"></path><path d="M167.07,284.51l-2.8,13.5s13.46,3.64,19.06.64c3.83-2,3.65-7.49-2.32-10.21A45.14,45.14,0,0,0,167.07,284.51Z" style="fill: rgb(38, 50, 56); transform-origin: 175.088px 292.173px;" id="elezfo876t85w" class="animable"></path><g id="elemxbovm69mu"><path d="M167.07,284.51l-2.8,13.5s13.46,3.64,19.06.64c3.83-2,3.65-7.49-2.32-10.21A45.14,45.14,0,0,0,167.07,284.51Z" style="fill: rgb(255, 255, 255); opacity: 0.5; transform-origin: 175.088px 292.173px;" class="animable"></path></g><path d="M139.38,279.1l-2.8,13.49s13.46,3.65,19.06.65c3.84-2.05,3.65-7.49-2.32-10.21A45.14,45.14,0,0,0,139.38,279.1Z" style="fill: rgb(38, 50, 56); transform-origin: 147.4px 286.762px;" id="elaotjkbthel" class="animable"></path><g id="el1mgn3cpjceqi"><path d="M139.38,279.1l-2.8,13.49s13.46,3.65,19.06.65c3.84-2.05,3.65-7.49-2.32-10.21A45.14,45.14,0,0,0,139.38,279.1Z" style="fill: rgb(255, 255, 255); opacity: 0.5; transform-origin: 147.4px 286.762px;" class="animable"></path></g><path d="M141.24,279.34,138.4,293l1.72.36,2.79-13.76C142.32,279.52,141.75,279.41,141.24,279.34Z" style="fill: rgb(255, 255, 255); transform-origin: 140.655px 286.35px;" id="el72dbifa1foe" class="animable"></path><path d="M169.12,284.76l-2.84,13.71,1.73.36,2.78-13.76C170.2,284.94,169.64,284.84,169.12,284.76Z" style="fill: rgb(255, 255, 255); transform-origin: 168.535px 291.795px;" id="elpcpo8zk3ila" class="animable"></path><path d="M284.34,274.65a6.92,6.92,0,1,1-5.37-8.18A6.91,6.91,0,0,1,284.34,274.65Z" style="fill: rgb(246, 139, 31); transform-origin: 277.565px 273.246px;" id="elo55ewbazxwn" class="animable"></path><path d="M115.79,288.53h-.05L93,283.47a.25.25,0,1,1,.11-.48L115.85,288a.25.25,0,0,1,.19.3A.26.26,0,0,1,115.79,288.53Z" style="fill: rgb(246, 139, 31); transform-origin: 104.405px 285.75px;" id="elazasa8xxo" class="animable"></path><path d="M120.65,289.66h-.06L118,289a.25.25,0,0,1,.12-.49l2.6.63a.25.25,0,0,1,.18.3A.25.25,0,0,1,120.65,289.66Z" style="fill: rgb(246, 139, 31); transform-origin: 119.357px 289.081px;" id="elx6wb0tvvf6" class="animable"></path></g><g id="freepik--Tower--inject-421" class="animable" style="transform-origin: 360.615px 246.88px;"><path d="M343.88,110.67V89.76a.38.38,0,0,0-.76,0v20.91a.38.38,0,0,0,.76,0Z" style="fill: rgb(38, 50, 56); transform-origin: 343.5px 100.215px;" id="elhfdrfkwrjcv" class="animable"></path><g id="elnttky8ui1wf"><path d="M343.88,110.67V89.76a.38.38,0,0,0-.76,0v20.91a.38.38,0,0,0,.76,0Z" style="fill: rgb(255, 255, 255); opacity: 0.3; transform-origin: 343.5px 100.215px;" class="animable"></path></g><rect x="357.02" y="62.94" width="3.6" height="47.67" style="fill: rgb(246, 139, 31); transform-origin: 358.82px 86.775px;" id="el0ahoaq1zdy55" class="animable"></rect><path d="M350.39,87.82V66.91a.38.38,0,0,0-.75,0V87.82a.38.38,0,0,0,.75,0Z" style="fill: rgb(38, 50, 56); transform-origin: 350.015px 77.365px;" id="elic2lh7rgay" class="animable"></path><g id="elxykskbveqze"><path d="M350.39,87.82V66.91a.38.38,0,0,0-.75,0V87.82a.38.38,0,0,0,.75,0Z" style="fill: rgb(255, 255, 255); opacity: 0.3; transform-origin: 350.015px 77.365px;" class="animable"></path></g><rect x="368.36" y="100.41" width="4.19" height="11.24" style="fill: rgb(38, 50, 56); transform-origin: 370.455px 106.03px;" id="elukgybmckbr" class="animable"></rect><polygon points="326.33 235.64 300.42 165.54 420.81 165.54 394.91 235.64 326.33 235.64" style="fill: rgb(246, 139, 31); transform-origin: 360.615px 200.59px;" id="elq1a6yt1z3rk" class="animable"></polygon><g id="elecrjkpfn7tq"><polygon points="306.78 182.74 414.36 183.01 404.11 210.75 317.13 210.75 306.78 182.74" style="fill: rgb(255, 255, 255); opacity: 0.6; transform-origin: 360.57px 196.745px;" class="animable"></polygon></g><polygon points="300.42 165.54 335.18 156.83 384.97 156.83 420.81 165.54 300.42 165.54" style="fill: rgb(246, 139, 31); transform-origin: 360.615px 161.185px;" id="elu2emzr11xtd" class="animable"></polygon><polygon points="336.03 156.83 336.03 146.46 384.46 146.27 384.46 156.83 336.03 156.83" style="fill: rgb(246, 139, 31); transform-origin: 360.245px 151.55px;" id="elzvnoigvikjq" class="animable"></polygon><polygon points="336.03 146.46 325.23 118.92 394.99 118.92 384.46 146.46 336.03 146.46" style="fill: rgb(246, 139, 31); transform-origin: 360.11px 132.69px;" id="el8vaujrivgbk" class="animable"></polygon><polygon points="325.23 118.92 337.67 110.61 383.06 110.61 394.99 118.92 325.23 118.92" style="fill: rgb(246, 139, 31); transform-origin: 360.11px 114.765px;" id="elgewm327he7d" class="animable"></polygon><rect x="333.61" y="235.64" width="53.37" height="195.18" style="fill: rgb(246, 139, 31); transform-origin: 360.295px 333.23px;" id="elpywgynki2o" class="animable"></rect><path d="M370.78,100.77V79.86a.38.38,0,0,0-.75,0v20.91a.38.38,0,0,0,.75,0Z" style="fill: rgb(38, 50, 56); transform-origin: 370.405px 90.315px;" id="elusel7e36fy" class="animable"></path><rect x="347.98" y="87.45" width="4.19" height="23.16" style="fill: rgb(38, 50, 56); transform-origin: 350.075px 99.03px;" id="el66el5j1wfwd" class="animable"></rect><g style="clip-path: url(&quot;#freepik--clip-path--inject-421&quot;); transform-origin: 358.82px 90.775px;" id="elz1s9skrvwu" class="animable"><g id="ely8dxfvxdx5p"><polygon points="360.62 66.91 357.02 72.15 357.02 80.57 360.62 75.09 360.62 66.91" style="fill: rgb(255, 255, 255); opacity: 0.3; transform-origin: 358.82px 73.74px;" class="animable"></polygon></g><g id="el4ou08069u85"><polygon points="360.62 83.95 357.02 89.19 357.02 97.61 360.62 92.13 360.62 83.95" style="fill: rgb(255, 255, 255); opacity: 0.3; transform-origin: 358.82px 90.78px;" class="animable"></polygon></g><g id="el8lfratsg9gy"><polygon points="360.62 100.99 357.02 106.23 357.02 114.64 360.62 109.17 360.62 100.99" style="fill: rgb(255, 255, 255); opacity: 0.3; transform-origin: 358.82px 107.815px;" class="animable"></polygon></g></g><g id="elgmut1pavshj"><rect x="347.98" y="87.45" width="4.19" height="23.16" style="fill: rgb(255, 255, 255); opacity: 0.3; transform-origin: 350.075px 99.03px;" class="animable"></rect></g><g id="eldsjv20l41yh"><polygon points="327.22 123.99 334.07 141.47 386.37 141.47 393.05 123.99 327.22 123.99" style="fill: rgb(255, 255, 255); opacity: 0.6; transform-origin: 360.135px 132.73px;" class="animable"></polygon></g><g id="ely1pq8pgasq"><polygon points="325.23 118.92 337.67 110.61 383.06 110.61 394.99 118.92 325.23 118.92" style="fill: rgb(255, 255, 255); opacity: 0.3; transform-origin: 360.11px 114.765px;" class="animable"></polygon></g><rect x="336.55" y="123.99" width="0.25" height="17.48" style="fill: rgb(246, 139, 31); transform-origin: 336.675px 132.73px;" id="el9vse8f7u02" class="animable"></rect><rect x="331.83" y="136.54" width="56.37" height="0.25" style="fill: rgb(246, 139, 31); transform-origin: 360.015px 136.665px;" id="ele94smhkiyyk" class="animable"></rect><rect x="329.06" y="128.99" width="62.03" height="0.25" style="fill: rgb(246, 139, 31); transform-origin: 360.075px 129.115px;" id="el95vu2t2xbc" class="animable"></rect><rect x="346.34" y="123.99" width="0.25" height="17.48" style="fill: rgb(246, 139, 31); transform-origin: 346.465px 132.73px;" id="elmvkcxn2yly8" class="animable"></rect><rect x="356.13" y="123.99" width="0.25" height="17.48" style="fill: rgb(246, 139, 31); transform-origin: 356.255px 132.73px;" id="elmw318kzo17j" class="animable"></rect><rect x="365.92" y="123.99" width="0.25" height="17.48" style="fill: rgb(246, 139, 31); transform-origin: 366.045px 132.73px;" id="elhlin4n1rnlk" class="animable"></rect><rect x="375.72" y="123.99" width="0.25" height="17.48" style="fill: rgb(246, 139, 31); transform-origin: 375.845px 132.73px;" id="el1i01aumfbqxi" class="animable"></rect><rect x="385.51" y="123.99" width="0.25" height="17.48" style="fill: rgb(246, 139, 31); transform-origin: 385.635px 132.73px;" id="el62f8qxjudmf" class="animable"></rect><g id="elgjudtsyxz1g"><polygon points="328.07 126.16 392.23 126.16 393.05 123.99 327.22 123.99 328.07 126.16" style="opacity: 0.3; transform-origin: 360.135px 125.075px;" class="animable"></polygon></g><g id="elwxpjxd65yn"><polygon points="300.42 165.54 335.18 156.83 384.97 156.83 420.81 165.54 300.42 165.54" style="opacity: 0.3; transform-origin: 360.615px 161.185px;" class="animable"></polygon></g><g id="elont7z765ngh"><polygon points="334.07 141.47 347.98 123.99 356.26 123.99 342 141.47 334.07 141.47" style="fill: rgb(255, 255, 255); opacity: 0.6; transform-origin: 345.165px 132.73px;" class="animable"></polygon></g><g id="el7d76c5o9w3b"><polygon points="344.56 141.47 358.46 123.99 361.49 123.99 347.24 141.47 344.56 141.47" style="fill: rgb(255, 255, 255); opacity: 0.6; transform-origin: 353.025px 132.73px;" class="animable"></polygon></g><g id="elqmc625nb53"><rect x="318.66" y="180.4" width="0.25" height="31.06" style="fill: rgb(246, 139, 31); transform-origin: 318.785px 195.93px; transform: rotate(-1.39deg);" class="animable"></rect></g><g id="el3mxrpizvb5o"><rect x="334.71" y="180.4" width="0.25" height="31.06" style="fill: rgb(246, 139, 31); transform-origin: 334.835px 195.93px; transform: rotate(-1.39deg);" class="animable"></rect></g><g id="eldfxhyykhjms"><rect x="350.76" y="180.4" width="0.25" height="31.06" style="fill: rgb(246, 139, 31); transform-origin: 350.885px 195.93px; transform: rotate(-1.39deg);" class="animable"></rect></g><g id="elgymt89mnpnp"><rect x="366.81" y="180.4" width="0.25" height="31.06" style="fill: rgb(246, 139, 31); transform-origin: 366.935px 195.93px; transform: rotate(-1.39deg);" class="animable"></rect></g><g id="elsv9a3fxouh"><rect x="382.85" y="180.4" width="0.25" height="31.06" style="fill: rgb(246, 139, 31); transform-origin: 382.975px 195.93px; transform: rotate(-1.39deg);" class="animable"></rect></g><g id="el9b8zu5zz18q"><rect x="398.9" y="180.4" width="0.25" height="31.06" style="fill: rgb(246, 139, 31); transform-origin: 399.025px 195.93px; transform: rotate(-1.39deg);" class="animable"></rect></g><rect x="310.26" y="191.32" width="100.69" height="0.25" style="fill: rgb(246, 139, 31); transform-origin: 360.605px 191.445px;" id="elkxjnatvvzs8" class="animable"></rect><rect x="314.3" y="202.98" width="91.97" height="0.25" style="fill: rgb(246, 139, 31); transform-origin: 360.285px 203.105px;" id="el0a5umd0akz78" class="animable"></rect><g id="elqrttoqocdk"><polygon points="306.78 182.74 307.88 185.72 413.36 185.72 414.36 183.01 306.78 182.74" style="opacity: 0.3; transform-origin: 360.57px 184.23px;" class="animable"></polygon></g><g id="eluuc3afyc7ca"><polygon points="323.72 210.75 345.93 182.84 359.15 182.84 336.38 210.75 323.72 210.75" style="fill: rgb(255, 255, 255); opacity: 0.6; transform-origin: 341.435px 196.795px;" class="animable"></polygon></g><g id="el7oz7j5czz1x"><polygon points="369.58 210.75 391.79 182.84 405.02 182.84 382.25 210.75 369.58 210.75" style="fill: rgb(255, 255, 255); opacity: 0.6; transform-origin: 387.3px 196.795px;" class="animable"></polygon></g><g id="ellpu94qowqip"><polygon points="340.46 210.75 362.67 182.84 367.51 182.84 344.74 210.75 340.46 210.75" style="fill: rgb(255, 255, 255); opacity: 0.6; transform-origin: 353.985px 196.795px;" class="animable"></polygon></g><g id="el0boom8fko57g"><rect x="333.61" y="235.64" width="53.37" height="6.52" style="opacity: 0.3; transform-origin: 360.295px 238.9px;" class="animable"></rect></g><g id="eltdj1odn4rp"><polygon points="336.03 156.83 336.03 146.46 384.46 146.27 384.46 156.83 336.03 156.83" style="fill: rgb(255, 255, 255); opacity: 0.3; transform-origin: 360.245px 151.55px;" class="animable"></polygon></g><g id="elfvcpoubejd9"><polygon points="348.32 274.81 358.68 255.69 371.9 255.69 360.99 274.81 348.32 274.81" style="fill: rgb(255, 255, 255); opacity: 0.6; transform-origin: 360.11px 265.25px;" class="animable"></polygon></g><g id="elucr9cv3vpr8"><polygon points="365.06 274.81 376.19 255.69 381.03 255.69 369.34 274.81 365.06 274.81" style="fill: rgb(255, 255, 255); opacity: 0.6; transform-origin: 373.045px 265.25px;" class="animable"></polygon></g><g id="el0luszkc5lolq"><rect x="343.6" y="255.69" width="43.38" height="19.07" style="fill: rgb(255, 255, 255); opacity: 0.6; transform-origin: 365.29px 265.225px;" class="animable"></rect></g><rect x="351.78" y="254.86" width="0.25" height="20.78" style="fill: rgb(246, 139, 31); transform-origin: 351.905px 265.25px;" id="el64smxq4x5d7" class="animable"></rect><rect x="343.6" y="265.13" width="43.38" height="0.25" style="fill: rgb(246, 139, 31); transform-origin: 365.29px 265.255px;" id="elbgln7jo4ful" class="animable"></rect><rect x="362.18" y="254.86" width="0.25" height="20.78" style="fill: rgb(246, 139, 31); transform-origin: 362.305px 265.25px;" id="elxithyhui7b9" class="animable"></rect><rect x="372.57" y="254.86" width="0.25" height="20.78" style="fill: rgb(246, 139, 31); transform-origin: 372.695px 265.25px;" id="eli1o3hmxwxks" class="animable"></rect><rect x="382.38" y="254.86" width="0.25" height="20.78" style="fill: rgb(246, 139, 31); transform-origin: 382.505px 265.25px;" id="elr0gpm4i5t6j" class="animable"></rect><g id="elp29j1zrhl0c"><polyline points="343.6 255.69 343.6 258.03 386.98 258.03 386.98 255.69 343.94 255.69" style="opacity: 0.3; transform-origin: 365.29px 256.86px;" class="animable"></polyline></g><g id="el7tu2f5e7but"><polygon points="348.32 305.83 358.68 286.7 371.9 286.7 360.99 305.83 348.32 305.83" style="fill: rgb(255, 255, 255); opacity: 0.6; transform-origin: 360.11px 296.265px;" class="animable"></polygon></g><g id="elu47eh9hit6"><polygon points="365.06 305.83 376.19 286.7 381.03 286.7 369.34 305.83 365.06 305.83" style="fill: rgb(255, 255, 255); opacity: 0.6; transform-origin: 373.045px 296.265px;" class="animable"></polygon></g><g id="elmp1ocmq4zd"><rect x="343.6" y="286.7" width="43.38" height="19.07" style="fill: rgb(255, 255, 255); opacity: 0.6; transform-origin: 365.29px 296.235px;" class="animable"></rect></g><rect x="351.78" y="285.88" width="0.25" height="20.78" style="fill: rgb(246, 139, 31); transform-origin: 351.905px 296.27px;" id="elhcguetu8x6" class="animable"></rect><rect x="343.6" y="296.14" width="43.38" height="0.25" style="fill: rgb(246, 139, 31); transform-origin: 365.29px 296.265px;" id="elef5d02rt6jp" class="animable"></rect><rect x="362.18" y="285.88" width="0.25" height="20.78" style="fill: rgb(246, 139, 31); transform-origin: 362.305px 296.27px;" id="elbjt89lhfsui" class="animable"></rect><rect x="372.57" y="285.88" width="0.25" height="20.78" style="fill: rgb(246, 139, 31); transform-origin: 372.695px 296.27px;" id="elguk2h3lmpsb" class="animable"></rect><rect x="382.38" y="285.88" width="0.25" height="20.78" style="fill: rgb(246, 139, 31); transform-origin: 382.505px 296.27px;" id="ell8zcja1sko" class="animable"></rect><g id="elhp6wiv4l30f"><polyline points="343.6 286.7 343.6 289.04 386.98 289.04 386.98 286.7 343.94 286.7" style="opacity: 0.3; transform-origin: 365.29px 287.87px;" class="animable"></polyline></g><g id="eloxbnwyxclh"><polygon points="348.32 337.43 358.68 318.31 371.9 318.31 360.99 337.43 348.32 337.43" style="fill: rgb(255, 255, 255); opacity: 0.6; transform-origin: 360.11px 327.87px;" class="animable"></polygon></g><g id="el368853nnd6x"><polygon points="365.06 337.43 376.19 318.31 381.03 318.31 369.34 337.43 365.06 337.43" style="fill: rgb(255, 255, 255); opacity: 0.6; transform-origin: 373.045px 327.87px;" class="animable"></polygon></g><g id="elnhiwq8ip769"><rect x="343.6" y="318.31" width="43.38" height="19.07" style="fill: rgb(255, 255, 255); opacity: 0.6; transform-origin: 365.29px 327.845px;" class="animable"></rect></g><rect x="351.78" y="317.48" width="0.25" height="20.78" style="fill: rgb(246, 139, 31); transform-origin: 351.905px 327.87px;" id="elj99flsx6sc" class="animable"></rect><rect x="343.6" y="327.75" width="43.38" height="0.25" style="fill: rgb(246, 139, 31); transform-origin: 365.29px 327.875px;" id="ellmcgo8ewbr" class="animable"></rect><rect x="362.18" y="317.48" width="0.25" height="20.78" style="fill: rgb(246, 139, 31); transform-origin: 362.305px 327.87px;" id="elixeac35pdro" class="animable"></rect><rect x="372.57" y="317.48" width="0.25" height="20.78" style="fill: rgb(246, 139, 31); transform-origin: 372.695px 327.87px;" id="el0m3fiodgqdy" class="animable"></rect><rect x="382.38" y="317.48" width="0.25" height="20.78" style="fill: rgb(246, 139, 31); transform-origin: 382.505px 327.87px;" id="elbqb8vbb9sj" class="animable"></rect><g id="el4rbvbw7iosv"><polyline points="343.6 318.31 343.6 320.64 386.98 320.64 386.98 318.31 343.94 318.31" style="opacity: 0.3; transform-origin: 365.29px 319.475px;" class="animable"></polyline></g><g id="elg2svnheozcw"><polygon points="348.32 368.27 358.68 349.15 371.9 349.15 360.99 368.27 348.32 368.27" style="fill: rgb(255, 255, 255); opacity: 0.6; transform-origin: 360.11px 358.71px;" class="animable"></polygon></g><g id="elmg9bm4h0oxg"><polygon points="365.06 368.27 376.19 349.15 381.03 349.15 369.34 368.27 365.06 368.27" style="fill: rgb(255, 255, 255); opacity: 0.6; transform-origin: 373.045px 358.71px;" class="animable"></polygon></g><g id="elpehp0ad4c3"><rect x="343.6" y="349.15" width="43.38" height="19.07" style="fill: rgb(255, 255, 255); opacity: 0.6; transform-origin: 365.29px 358.685px;" class="animable"></rect></g><rect x="351.78" y="348.32" width="0.25" height="20.78" style="fill: rgb(246, 139, 31); transform-origin: 351.905px 358.71px;" id="eltvj64w91cml" class="animable"></rect><rect x="343.6" y="358.59" width="43.38" height="0.25" style="fill: rgb(246, 139, 31); transform-origin: 365.29px 358.715px;" id="el70roqr87xn" class="animable"></rect><rect x="362.18" y="348.32" width="0.25" height="20.78" style="fill: rgb(246, 139, 31); transform-origin: 362.305px 358.71px;" id="elj5oo0ngpj1" class="animable"></rect><rect x="372.57" y="348.32" width="0.25" height="20.78" style="fill: rgb(246, 139, 31); transform-origin: 372.695px 358.71px;" id="elalg1cxiy5ms" class="animable"></rect><rect x="382.38" y="348.32" width="0.25" height="20.78" style="fill: rgb(246, 139, 31); transform-origin: 382.505px 358.71px;" id="elhop3ml3dhhm" class="animable"></rect><g id="elpb2eu4ewtt"><polyline points="343.6 349.15 343.6 351.49 386.98 351.49 386.98 349.15 343.94 349.15" style="opacity: 0.3; transform-origin: 365.29px 350.32px;" class="animable"></polyline></g><g id="ela4q0twhuuff"><polygon points="348.32 399.12 358.68 379.99 371.9 379.99 360.99 399.12 348.32 399.12" style="fill: rgb(255, 255, 255); opacity: 0.6; transform-origin: 360.11px 389.555px;" class="animable"></polygon></g><g id="elbtwioxal4nb"><polygon points="365.06 399.12 376.19 379.99 381.03 379.99 369.34 399.12 365.06 399.12" style="fill: rgb(255, 255, 255); opacity: 0.6; transform-origin: 373.045px 389.555px;" class="animable"></polygon></g><g id="elmq44eqlcs8d"><rect x="343.6" y="379.99" width="43.38" height="19.07" style="fill: rgb(255, 255, 255); opacity: 0.6; transform-origin: 365.29px 389.525px;" class="animable"></rect></g><rect x="351.78" y="379.17" width="0.25" height="20.78" style="fill: rgb(246, 139, 31); transform-origin: 351.905px 389.56px;" id="el4qh25h9meax" class="animable"></rect><rect x="343.6" y="389.43" width="43.38" height="0.25" style="fill: rgb(246, 139, 31); transform-origin: 365.29px 389.555px;" id="elvfm1s96shob" class="animable"></rect><rect x="362.18" y="379.17" width="0.25" height="20.78" style="fill: rgb(246, 139, 31); transform-origin: 362.305px 389.56px;" id="elic589086r8e" class="animable"></rect><rect x="372.57" y="379.17" width="0.25" height="20.78" style="fill: rgb(246, 139, 31); transform-origin: 372.695px 389.56px;" id="el80b33uirba7" class="animable"></rect><rect x="382.38" y="379.17" width="0.25" height="20.78" style="fill: rgb(246, 139, 31); transform-origin: 382.505px 389.56px;" id="eli0fx3bcjb8o" class="animable"></rect><g id="el2dp8swygx6"><polyline points="343.6 379.99 343.6 382.33 386.98 382.33 386.98 379.99 343.94 379.99" style="opacity: 0.3; transform-origin: 365.29px 381.16px;" class="animable"></polyline></g><g id="elangt3g3exf"><polygon points="322.38 165.54 337.04 235.64 326.33 235.64 300.42 165.54 322.38 165.54" style="opacity: 0.3; transform-origin: 318.73px 200.59px;" class="animable"></polygon></g><g id="el4xgs3naqnfs"><polygon points="325.23 118.92 336.03 146.46 336.03 156.83 340.46 156.83 340.46 146.44 331.83 118.92 337.67 110.61 325.23 118.92" style="opacity: 0.3; transform-origin: 332.845px 133.72px;" class="animable"></polygon></g><g id="elvx2pxzzoux"><rect x="333.61" y="235.64" width="6.85" height="195.18" style="opacity: 0.3; transform-origin: 337.035px 333.23px;" class="animable"></rect></g></g><g id="freepik--Building--inject-421" class="animable" style="transform-origin: 250.28px 389.315px;"><polygon points="411.27 439.41 117.66 439.41 80.27 344.4 420.29 344.4 411.27 439.41" style="fill: rgb(246, 139, 31); transform-origin: 250.28px 391.905px;" id="el54n12lwct2m" class="animable"></polygon><g id="elz7pywtuwgl"><polygon points="300.1 431.35 114.49 431.35 85.05 356.26 300.1 356.26 300.1 431.35" style="fill: rgb(255, 255, 255); opacity: 0.6; transform-origin: 192.575px 393.805px;" class="animable"></polygon></g><g id="elltcgezxiz2"><polygon points="147.9 431.54 188.68 356.26 240.75 356.26 197.78 431.54 147.9 431.54" style="fill: rgb(255, 255, 255); opacity: 0.6; transform-origin: 194.325px 393.9px;" class="animable"></polygon></g><g id="elh0r3aol06s"><polygon points="213.81 431.54 257.63 356.26 276.68 356.26 230.66 431.54 213.81 431.54" style="fill: rgb(255, 255, 255); opacity: 0.6; transform-origin: 245.245px 393.9px;" class="animable"></polygon></g><g id="elr4cqlaj0qym"><polygon points="377.79 386.14 388.15 367.02 401.38 367.02 390.46 386.14 377.79 386.14" style="fill: rgb(255, 255, 255); opacity: 0.6; transform-origin: 389.585px 376.58px;" class="animable"></polygon></g><g id="ele80gzvrpgnv"><polygon points="394.54 386.14 405.67 367.02 410.5 367.02 398.81 386.14 394.54 386.14" style="fill: rgb(255, 255, 255); opacity: 0.6; transform-origin: 402.52px 376.58px;" class="animable"></polygon></g><g id="elupn9951473"><polygon points="416.23 386.12 343.6 386.12 343.6 367.04 418.14 367.04 416.23 386.12" style="fill: rgb(255, 255, 255); opacity: 0.6; transform-origin: 380.87px 376.58px;" class="animable"></polygon></g><rect x="381.25" y="366.19" width="0.25" height="20.78" style="fill: rgb(246, 139, 31); transform-origin: 381.375px 376.58px;" id="eluht8zg3e2c" class="animable"></rect><rect x="370.83" y="366.19" width="0.25" height="20.78" style="fill: rgb(246, 139, 31); transform-origin: 370.955px 376.58px;" id="elhb3iw7v6uxc" class="animable"></rect><rect x="360.42" y="366.19" width="0.25" height="20.78" style="fill: rgb(246, 139, 31); transform-origin: 360.545px 376.58px;" id="el5nb9apadcaw" class="animable"></rect><rect x="350" y="366.19" width="0.25" height="20.78" style="fill: rgb(246, 139, 31); transform-origin: 350.125px 376.58px;" id="elal57y6ovoyk" class="animable"></rect><rect x="343.6" y="376.45" width="73.63" height="0.25" style="fill: rgb(246, 139, 31); transform-origin: 380.415px 376.575px;" id="elm0mn7hycavr" class="animable"></rect><rect x="391.65" y="366.19" width="0.25" height="20.78" style="fill: rgb(246, 139, 31); transform-origin: 391.775px 376.58px;" id="ell4drxa1pv8b" class="animable"></rect><rect x="402.04" y="366.19" width="0.25" height="20.78" style="fill: rgb(246, 139, 31); transform-origin: 402.165px 376.58px;" id="elq2j4m9dg1xp" class="animable"></rect><rect x="411.85" y="366.19" width="0.25" height="20.78" style="fill: rgb(246, 139, 31); transform-origin: 411.975px 376.58px;" id="elak06qqkca39" class="animable"></rect><g id="eluh2jupkt82h"><polyline points="343.6 367.02 343.6 369.35 417.76 369.35 418.14 367.04 344.18 367.02" style="opacity: 0.3; transform-origin: 380.87px 368.185px;" class="animable"></polyline></g><rect x="161.76" y="352.99" width="0.5" height="81.81" style="fill: rgb(246, 139, 31); transform-origin: 162.01px 393.895px;" id="el4d7xq1oa9bi" class="animable"></rect><rect x="120.73" y="352.99" width="0.5" height="81.81" style="fill: rgb(246, 139, 31); transform-origin: 120.98px 393.895px;" id="elanuet3o0i9b" class="animable"></rect><rect x="100.68" y="393.65" width="199.42" height="0.5" style="fill: rgb(246, 139, 31); transform-origin: 200.39px 393.9px;" id="elg17evjnxrgr" class="animable"></rect><rect x="202.69" y="352.99" width="0.5" height="81.81" style="fill: rgb(246, 139, 31); transform-origin: 202.94px 393.895px;" id="elp46jdkapl0r" class="animable"></rect><rect x="243.62" y="352.99" width="0.5" height="81.81" style="fill: rgb(246, 139, 31); transform-origin: 243.87px 393.895px;" id="elf381z9uezer" class="animable"></rect><rect x="282.21" y="352.99" width="0.5" height="81.81" style="fill: rgb(246, 139, 31); transform-origin: 282.46px 393.895px;" id="el7jvnzyieazi" class="animable"></rect><g id="el1rxqbmdwo0v"><polygon points="85.05 356.26 300.1 356.26 300.1 359.03 86.03 359.03 85.05 356.26" style="opacity: 0.3; transform-origin: 192.575px 357.645px;" class="animable"></polygon></g><g id="elxj0d37pyuo"><rect x="334.02" y="412.29" width="62.09" height="27.13" style="opacity: 0.3; transform-origin: 365.065px 425.855px;" class="animable"></rect></g><rect x="340.26" y="419.22" width="49.61" height="20.19" style="fill: rgb(38, 50, 56); transform-origin: 365.065px 429.315px;" id="elmwpfqwcnqrg" class="animable"></rect><rect x="343.24" y="421.51" width="7.08" height="17.91" style="fill: rgb(246, 139, 31); transform-origin: 346.78px 430.465px;" id="ela11kk1vt81h" class="animable"></rect><rect x="352.57" y="421.51" width="7.08" height="17.91" style="fill: rgb(246, 139, 31); transform-origin: 356.11px 430.465px;" id="el4xkopyic5go" class="animable"></rect><rect x="361.91" y="421.51" width="7.08" height="17.91" style="fill: rgb(246, 139, 31); transform-origin: 365.45px 430.465px;" id="elnw764z5pkx" class="animable"></rect><rect x="371.24" y="421.51" width="7.08" height="17.91" style="fill: rgb(246, 139, 31); transform-origin: 374.78px 430.465px;" id="elq1c4dedibwg" class="animable"></rect><rect x="380.57" y="421.51" width="7.08" height="17.91" style="fill: rgb(246, 139, 31); transform-origin: 384.11px 430.465px;" id="elnx43ns7l1eh" class="animable"></rect><g id="elt8k0x9e3oj"><path d="M343.24,423.07s44.42.17,44.42,0v-1.56H343.24Z" style="opacity: 0.3; transform-origin: 365.45px 422.328px;" class="animable"></path></g><g id="elm5lb9948t9"><polygon points="343.24 439.41 350.32 433.26 350.32 439.41 343.24 439.41" style="fill: rgb(255, 255, 255); opacity: 0.3; transform-origin: 346.78px 436.335px;" class="animable"></polygon></g><g id="elrisnzlqhtk"><polygon points="352.57 431.47 359.66 425.2 359.66 439.41 352.57 439.41 352.57 431.47" style="fill: rgb(255, 255, 255); opacity: 0.3; transform-origin: 356.115px 432.305px;" class="animable"></polygon></g><g id="elfayy7jj7hhs"><polygon points="361.84 432.06 368.92 425.8 368.92 439.41 361.84 439.41 361.84 432.06" style="fill: rgb(255, 255, 255); opacity: 0.3; transform-origin: 365.38px 432.605px;" class="animable"></polygon></g><path d="M260.86,339.71H224.18a.25.25,0,0,1,0-.5h36.68a.25.25,0,0,1,0,.5Z" style="fill: rgb(246, 139, 31); transform-origin: 242.52px 339.46px;" id="eloyergdpd65e" class="animable"></path><path d="M273.69,339.71h-6.13a.25.25,0,0,1,0-.5h6.13a.25.25,0,0,1,0,.5Z" style="fill: rgb(246, 139, 31); transform-origin: 270.625px 339.46px;" id="elrut1gamkobi" class="animable"></path></g><defs>     <filter id="active" height="200%">         <feMorphology in="SourceAlpha" result="DILATED" operator="dilate" radius="2"></feMorphology>                <feFlood flood-color="#32DFEC" flood-opacity="1" result="PINK"></feFlood>        <feComposite in="PINK" in2="DILATED" operator="in" result="OUTLINE"></feComposite>        <feMerge>            <feMergeNode in="OUTLINE"></feMergeNode>            <feMergeNode in="SourceGraphic"></feMergeNode>        </feMerge>    </filter>    <filter id="hover" height="200%">        <feMorphology in="SourceAlpha" result="DILATED" operator="dilate" radius="2"></feMorphology>                <feFlood flood-color="#ff0000" flood-opacity="0.5" result="PINK"></feFlood>        <feComposite in="PINK" in2="DILATED" operator="in" result="OUTLINE"></feComposite>        <feMerge>            <feMergeNode in="OUTLINE"></feMergeNode>            <feMergeNode in="SourceGraphic"></feMergeNode>        </feMerge>            <feColorMatrix type="matrix" values="0   0   0   0   0                0   1   0   0   0                0   0   0   0   0                0   0   0   1   0 "></feColorMatrix>    </filter></defs><defs><clipPath id="freepik--clip-path--inject-421"><rect x="357.02" y="62.94" width="3.6" height="47.67" style="fill:none"></rect></clipPath></defs></svg>